<svg width="347" height="107" viewBox="0 0 347 107" fill="none" xmlns="http://www.w3.org/2000/svg">
<path fill-rule="evenodd" clip-rule="evenodd" d="M24.6892 54.3776C24.6892 44.1148 19.3299 35.0466 11.1368 29.5835C7.08546 34.3194 4.95789 40.046 4.95789 46.1497C4.95789 56.4851 11.2249 65.4234 20.3296 69.6907C23.1 65.1999 24.6892 59.966 24.6892 54.3773V54.3776Z" fill="#75DB84"/>
<mask id="mask0_13_270" style="mask-type:luminance" maskUnits="userSpaceOnUse" x="4" y="29" width="21" height="41">
<path d="M24.6892 54.3776C24.6892 44.1148 19.3299 35.0466 11.1368 29.5835C7.08546 34.3194 4.95789 40.046 4.95789 46.1497C4.95789 56.4851 11.2249 65.4234 20.3296 69.6907C23.1 65.1999 24.6892 59.966 24.6892 54.3773V54.3776Z" fill="white"/>
</mask>
<g mask="url(#mask0_13_270)">
<path fill-rule="evenodd" clip-rule="evenodd" d="M29.433 46.6263C29.433 36.3636 24.0739 27.2953 15.8808 21.8323C11.8295 26.5681 9.7019 32.2947 9.7019 38.3985C9.7019 48.7339 15.9689 57.6722 25.0736 61.9397C27.844 57.4486 29.433 52.2147 29.433 46.6261V46.6263Z" fill="#75DB84"/>
</g>
<path fill-rule="evenodd" clip-rule="evenodd" d="M39.8676 54.4766C39.8676 44.2136 45.2266 35.1453 53.4197 29.6825C57.471 34.4184 59.5986 40.1447 59.5986 46.2485C59.5986 56.5839 53.3316 65.5222 44.2269 69.7897C41.4565 65.2989 39.8676 60.0647 39.8676 54.4763V54.4766Z" fill="#75DB84"/>
<mask id="mask1_13_270" style="mask-type:luminance" maskUnits="userSpaceOnUse" x="39" y="29" width="21" height="41">
<path d="M39.8676 54.4766C39.8676 44.2136 45.2266 35.1453 53.4197 29.6825C57.471 34.4184 59.5986 40.1447 59.5986 46.2485C59.5986 56.5839 53.3316 65.5222 44.2269 69.7897C41.4565 65.2989 39.8676 60.0647 39.8676 54.4763V54.4766Z" fill="white"/>
</mask>
<g mask="url(#mask1_13_270)">
<path fill-rule="evenodd" clip-rule="evenodd" d="M35.2458 46.7365C35.2458 36.4738 40.6052 27.4053 48.7982 21.9425C52.8493 26.6783 54.9772 32.4049 54.9772 38.5087C54.9772 48.8441 48.7101 57.7824 39.6052 62.0496C36.835 57.5588 35.2458 52.3249 35.2458 46.7363V46.7365Z" fill="#75DB84"/>
</g>
<path fill-rule="evenodd" clip-rule="evenodd" d="M39.9803 54.3776C39.9803 47.5213 42.3722 41.1984 46.4031 36.1273C42.5949 39.1774 37.6844 41.0138 32.3243 41.0138C26.9211 41.0138 21.9748 39.1476 18.1538 36.0532C22.2202 41.1367 24.6354 47.4879 24.6354 54.3776C24.6354 59.966 23.0462 65.2004 20.2758 69.691C20.3253 69.7144 20.3749 69.7373 20.4247 69.7602C22.7384 65.7616 27.2 63.0536 32.3243 63.0536C37.4611 63.0536 41.9321 65.775 44.2408 69.7899C44.2824 69.7707 44.3241 69.7517 44.3654 69.7324C41.5791 65.2326 39.9803 59.9833 39.9803 54.3776Z" fill="white"/>
<path fill-rule="evenodd" clip-rule="evenodd" d="M14.4674 21.4437C14.4674 17.4102 17.8795 14.1402 22.0884 14.1402C26.2971 14.1402 29.7091 17.4102 29.7091 21.4437C29.7091 25.4774 26.2971 28.7471 22.0884 28.7471C17.8795 28.7471 14.4674 25.4774 14.4674 21.4437ZM32.336 38.9177C25.4933 38.9177 19.5223 35.3535 16.3498 30.064L16.3422 30.0594C18.0011 31.0775 19.9726 31.6677 22.0887 31.6677C25.7214 31.6677 28.9299 29.928 30.8562 27.2702C30.8582 27.2736 30.8605 27.277 30.8623 27.2807L32.3355 30.1155L33.7952 27.2665L33.8047 27.2534C33.808 27.2492 33.8116 27.2631 33.8149 27.2675C35.7412 29.9268 38.9502 31.6679 42.5842 31.6679C44.6972 31.6679 46.6664 31.0797 48.3235 30.064C45.1511 35.3538 39.1798 38.918 32.3366 38.918L32.336 38.9177ZM14.7479 32.3881C15.8232 33.979 17.1296 35.4149 18.6209 36.6524C18.6682 36.6917 18.7157 36.7307 18.7632 36.7694C22.4166 39.7461 27.1565 41.5433 32.336 41.5433C37.4655 41.5433 42.1638 39.781 45.8024 36.856C45.8353 36.8297 45.8683 36.8028 45.901 36.7765C47.4595 35.5078 48.8206 34.0244 49.9339 32.3747C52.2403 28.9563 53.2525 25.2153 53.2525 21.4434C53.2525 15.7968 48.4763 11.2196 42.5839 11.2196C37.725 11.2196 33.6248 14.3323 32.336 18.5906C31.0475 14.3323 26.9476 11.2196 22.0884 11.2196C16.1961 11.2196 11.4199 15.797 11.4199 21.4434C11.4199 23.9025 11.1645 27.0869 14.7479 32.3881ZM34.9629 21.4434C34.9629 17.4099 38.375 14.14 42.5837 14.14C46.7923 14.14 50.2046 17.4099 50.2046 21.4434C50.2046 25.4771 46.7923 28.7468 42.5837 28.7468C38.375 28.7468 34.9629 25.4771 34.9629 21.4434Z" fill="#75DB84"/>
<path fill-rule="evenodd" clip-rule="evenodd" d="M12.5648 15.5903L32.3845 19.4085L52.0892 15.5903V3.63733H54.8824V11.7199H53.8845V17.2517H59.6801V11.7199H58.6822V3.63733H60.984V0.0102391H52.0892V0H12.5648V0.0102391H3.52808V3.63733H12.5648V15.5903Z" fill="#75DB84"/>
<path fill-rule="evenodd" clip-rule="evenodd" d="M30.8558 27.2705C28.9293 29.9283 25.7211 31.6679 22.0883 31.6679C19.9756 31.6679 18.0066 31.0797 16.3495 30.0643C19.522 35.3538 25.493 38.918 32.3357 38.918C39.1789 38.918 45.1502 35.3538 48.3227 30.0641C46.6656 31.0797 44.6964 31.6679 42.5833 31.6679C38.9493 31.6679 35.7403 29.9268 33.814 27.2676C33.8107 27.2632 33.8071 27.2493 33.8038 27.2534L33.7944 27.2666L32.3347 30.1155L30.8615 27.2807C30.8597 27.2771 30.8574 27.2737 30.8553 27.2702L30.8558 27.2705Z" fill="white"/>
<path fill-rule="evenodd" clip-rule="evenodd" d="M16.6076 16.369C15.2828 17.683 14.4675 19.4721 14.4675 21.4437C14.4675 25.4774 17.8796 28.7471 22.0885 28.7471C26.2972 28.7471 29.7092 25.4774 29.7092 21.4437C29.7092 20.5087 29.5261 19.615 29.1918 18.7934L16.6074 16.369H16.6076Z" fill="white"/>
<path fill-rule="evenodd" clip-rule="evenodd" d="M34.9628 21.4437C34.9628 25.4774 38.3751 28.7471 42.5838 28.7471C46.7924 28.7471 50.2047 25.4774 50.2047 21.4437C50.2047 19.4724 49.39 17.684 48.0654 16.3699L35.4733 18.81C35.1434 19.627 34.9625 20.5153 34.9625 21.4437H34.9628Z" fill="white"/>
<path fill-rule="evenodd" clip-rule="evenodd" d="M42.7591 17.9392C45.538 17.9392 47.7907 20.0892 47.7907 22.7418C47.7907 25.394 45.538 27.5442 42.7591 27.5442C39.9805 27.5442 37.7278 25.394 37.7278 22.7418C37.7278 22.1511 37.8402 21.5851 38.0445 21.0624C38.4003 21.3939 38.8868 21.5985 39.4237 21.5985C40.5146 21.5985 41.3988 20.7545 41.3988 19.7135C41.3988 19.1674 41.1552 18.6755 40.7664 18.3312C41.3779 18.0791 42.0514 17.9392 42.7594 17.9392H42.7591Z" fill="#75DB84"/>
<path fill-rule="evenodd" clip-rule="evenodd" d="M21.9084 17.9392C24.6873 17.9392 26.94 20.0892 26.94 22.7418C26.94 25.394 24.6873 27.5442 21.9084 27.5442C19.1298 27.5442 16.8771 25.394 16.8771 22.7418C16.8771 22.1511 16.9892 21.5851 17.1935 21.0624C17.5496 21.3939 18.0361 21.5985 18.573 21.5985C19.6639 21.5985 20.5481 20.7545 20.5481 19.7135C20.5481 19.1674 20.3044 18.6755 19.9157 18.3312C20.5272 18.0791 21.2007 17.9392 21.9087 17.9392H21.9084Z" fill="#75DB84"/>
<path fill-rule="evenodd" clip-rule="evenodd" d="M16.884 53.3091H47.4851L62.5547 69.7529L32.2051 104.576L1.95215 69.7607L16.884 53.3091Z" fill="#75DB84"/>
<path fill-rule="evenodd" clip-rule="evenodd" d="M16.8958 53.2206L47.4851 53.3091L62.5547 69.7529L1.95215 69.7607L16.8958 53.2206Z" fill="#75DB84"/>
<path fill-rule="evenodd" clip-rule="evenodd" d="M16.895 69.759L32.266 53.3091L47.4854 69.7548L32.2052 104.576L16.895 69.759Z" fill="#75DB84"/>
<path fill-rule="evenodd" clip-rule="evenodd" d="M8.61172 60.2897L0 69.778L32.2036 106.838L64.5124 69.7665L55.93 60.4016L48.142 51.9036H40.1709H40.0759H24.4894H24.4365H16.2227L8.61146 60.2897H8.61172ZM2.07318 69.7992L9.42622 61.6605L16.957 53.3249L24.6288 53.3469L24.6815 53.3471L39.8738 53.391L39.9742 53.3915L47.4243 53.4132L55.1023 61.791L62.4341 69.7914L32.2054 104.476L2.07318 69.7994V69.7992Z" fill="#75DB84"/>
<path d="M136.96 39.4509C141.312 39.4509 144.811 40.7949 147.456 43.4829C150.144 46.1282 151.488 49.8402 151.488 54.6189V75.4189H142.528V55.8349C142.528 53.0615 141.824 50.9495 140.416 49.4989C139.008 48.0055 137.088 47.2589 134.656 47.2589C132.224 47.2589 130.283 48.0055 128.832 49.4989C127.424 50.9495 126.72 53.0615 126.72 55.8349V75.4189H117.76V55.8349C117.76 53.0615 117.056 50.9495 115.648 49.4989C114.24 48.0055 112.32 47.2589 109.888 47.2589C107.414 47.2589 105.451 48.0055 104 49.4989C102.592 50.9495 101.888 53.0615 101.888 55.8349V75.4189H92.9285V39.9629H101.888V44.2509C103.04 42.7575 104.512 41.5842 106.304 40.7309C108.139 39.8775 110.144 39.4509 112.32 39.4509C115.094 39.4509 117.568 40.0482 119.744 41.2429C121.92 42.3949 123.606 44.0589 124.8 46.2349C125.952 44.1869 127.616 42.5442 129.792 41.3069C132.011 40.0695 134.4 39.4509 136.96 39.4509ZM157.687 57.6909C157.687 54.0216 158.434 50.8216 159.927 48.0909C161.42 45.3176 163.49 43.1842 166.135 41.6909C168.78 40.1549 171.81 39.3869 175.223 39.3869C179.618 39.3869 183.244 40.4962 186.103 42.7149C189.004 44.8909 190.946 47.9629 191.927 51.9309H182.263C181.751 50.3949 180.876 49.2002 179.639 48.3469C178.444 47.4509 176.951 47.0029 175.159 47.0029C172.599 47.0029 170.572 47.9415 169.079 49.8189C167.586 51.6535 166.839 54.2775 166.839 57.6909C166.839 61.0616 167.586 63.6856 169.079 65.5629C170.572 67.3976 172.599 68.3149 175.159 68.3149C178.786 68.3149 181.154 66.6936 182.263 63.4509H191.927C190.946 67.2909 189.004 70.3416 186.103 72.6029C183.202 74.8642 179.575 75.9949 175.223 75.9949C171.81 75.9949 168.78 75.2482 166.135 73.7549C163.49 72.2189 161.42 70.0856 159.927 67.3549C158.434 64.5816 157.687 61.3602 157.687 57.6909ZM207.451 45.0829C208.603 43.4615 210.182 42.1175 212.187 41.0509C214.235 39.9415 216.56 39.3869 219.163 39.3869C222.192 39.3869 224.923 40.1336 227.355 41.6269C229.83 43.1202 231.771 45.2535 233.179 48.0269C234.63 50.7575 235.355 53.9362 235.355 57.5629C235.355 61.1896 234.63 64.4109 233.179 67.2269C231.771 70.0002 229.83 72.1549 227.355 73.6909C224.923 75.2269 222.192 75.9949 219.163 75.9949C216.56 75.9949 214.256 75.4616 212.251 74.3949C210.288 73.3282 208.688 71.9842 207.451 70.3629V92.3149H198.491V39.9629H207.451V45.0829ZM226.203 57.5629C226.203 55.4295 225.755 53.5949 224.859 52.0589C224.006 50.4802 222.854 49.2855 221.403 48.4749C219.995 47.6642 218.459 47.2589 216.795 47.2589C215.174 47.2589 213.638 47.6855 212.187 48.5389C210.779 49.3495 209.627 50.5442 208.731 52.1229C207.878 53.7015 207.451 55.5575 207.451 57.6909C207.451 59.8242 207.878 61.6802 208.731 63.2589C209.627 64.8376 210.779 66.0536 212.187 66.9069C213.638 67.7176 215.174 68.1229 216.795 68.1229C218.459 68.1229 219.995 67.6962 221.403 66.8429C222.854 65.9896 224.006 64.7736 224.859 63.1949C225.755 61.6162 226.203 59.7389 226.203 57.5629ZM258.122 47.3229H251.914V75.4189H242.826V47.3229H238.794V39.9629H242.826V38.1709C242.826 33.8189 244.063 30.6189 246.538 28.5709C249.013 26.5229 252.746 25.5629 257.738 25.6909V33.2429C255.562 33.2002 254.047 33.5629 253.194 34.3309C252.341 35.0989 251.914 36.4855 251.914 38.4909V39.9629H258.122V47.3229ZM272.888 28.0589V75.4189H263.928V28.0589H272.888ZM286.285 35.7389C284.706 35.7389 283.384 35.2482 282.317 34.2669C281.293 33.2429 280.781 31.9842 280.781 30.4909C280.781 28.9975 281.293 27.7602 282.317 26.7789C283.384 25.7549 284.706 25.2429 286.285 25.2429C287.864 25.2429 289.165 25.7549 290.189 26.7789C291.256 27.7602 291.789 28.9975 291.789 30.4909C291.789 31.9842 291.256 33.2429 290.189 34.2669C289.165 35.2482 287.864 35.7389 286.285 35.7389ZM290.701 39.9629V75.4189H281.741V39.9629H290.701ZM319.137 75.4189L311.841 64.4109L305.377 75.4189H295.777L307.361 57.6269L295.649 39.9629H305.761L312.993 50.9069L319.521 39.9629H329.121L317.473 57.6269L329.249 75.4189H319.137ZM338.084 75.8669C336.463 75.8669 335.119 75.3762 334.052 74.3949C333.028 73.3709 332.516 72.1122 332.516 70.6189C332.516 69.1256 333.028 67.8882 334.052 66.9069C335.119 65.8829 336.463 65.3709 338.084 65.3709C339.663 65.3709 340.964 65.8829 341.988 66.9069C343.012 67.8882 343.524 69.1256 343.524 70.6189C343.524 72.1122 343.012 73.3709 341.988 74.3949C340.964 75.3762 339.663 75.8669 338.084 75.8669Z" fill="#75DB84"/>
</svg>
