<svg xmlns="http://www.w3.org/2000/svg" xmlns:xlink="http://www.w3.org/1999/xlink" width="500" zoomAndPan="magnify" viewBox="0 0 375 374.999991" height="500" preserveAspectRatio="xMidYMid meet" version="1.0"><defs><g/><clipPath id="405da525ff"><path d="M 107.503906 151.5 L 191.382812 151.5 L 191.382812 208.160156 L 107.503906 208.160156 Z M 107.503906 151.5 " clip-rule="nonzero"/></clipPath><clipPath id="a610af22cc"><path d="M 119.503906 151.5 L 179.289062 151.5 C 185.917969 151.5 191.289062 156.871094 191.289062 163.5 L 191.289062 196.160156 C 191.289062 202.785156 185.917969 208.160156 179.289062 208.160156 L 119.503906 208.160156 C 112.875 208.160156 107.503906 202.785156 107.503906 196.160156 L 107.503906 163.5 C 107.503906 156.871094 112.875 151.5 119.503906 151.5 Z M 119.503906 151.5 " clip-rule="nonzero"/></clipPath></defs><g clip-path="url(#405da525ff)"><g clip-path="url(#a610af22cc)"><path fill="#00ff7d" d="M 107.503906 151.5 L 191.382812 151.5 L 191.382812 208.160156 L 107.503906 208.160156 Z M 107.503906 151.5 " fill-opacity="1" fill-rule="nonzero"/></g></g><g fill="#000000" fill-opacity="1"><g transform="translate(112.502481, 202.499987)"><g><path d="M 17.875 -0.0625 L 13.375 -0.0625 L 6.421875 -33.484375 L 6.421875 0 L 2.34375 0 L 2.34375 -42 L 8.875 -42 L 15.78125 -8.453125 L 22.4375 -42 L 28.984375 -42 L 28.984375 0 L 24.546875 0 L 24.546875 -33.78125 Z M 17.875 -0.0625 "/></g></g></g><g fill="#000000" fill-opacity="1"><g transform="translate(143.882454, 202.499987)"><g><path d="M 11.453125 -42.421875 C 14.691406 -42.421875 17.082031 -41.457031 18.625 -39.53125 C 20.164062 -37.613281 20.9375 -35.054688 20.9375 -31.859375 L 20.9375 -28.078125 L 16.5 -28.078125 L 16.5 -32.09375 C 16.5 -34.019531 16.109375 -35.507812 15.328125 -36.5625 C 14.546875 -37.625 13.296875 -38.15625 11.578125 -38.15625 C 9.898438 -38.15625 8.660156 -37.625 7.859375 -36.5625 C 7.054688 -35.507812 6.65625 -34.019531 6.65625 -32.09375 L 6.65625 -9.90625 C 6.65625 -7.976562 7.054688 -6.484375 7.859375 -5.421875 C 8.660156 -4.367188 9.898438 -3.84375 11.578125 -3.84375 C 13.296875 -3.84375 14.546875 -4.367188 15.328125 -5.421875 C 16.109375 -6.484375 16.5 -7.976562 16.5 -9.90625 L 16.5 -15.359375 L 20.9375 -15.359375 L 20.9375 -10.140625 C 20.9375 -6.941406 20.164062 -4.378906 18.625 -2.453125 C 17.082031 -0.535156 14.691406 0.421875 11.453125 0.421875 C 8.253906 0.421875 5.882812 -0.535156 4.34375 -2.453125 C 2.8125 -4.378906 2.046875 -6.941406 2.046875 -10.140625 L 2.046875 -31.859375 C 2.046875 -33.460938 2.234375 -34.910156 2.609375 -36.203125 C 2.992188 -37.503906 3.570312 -38.613281 4.34375 -39.53125 C 5.125 -40.457031 6.101562 -41.171875 7.28125 -41.671875 C 8.46875 -42.171875 9.859375 -42.421875 11.453125 -42.421875 Z M 11.453125 -42.421875 "/></g></g></g><g fill="#000000" fill-opacity="1"><g transform="translate(166.682436, 202.499987)"><g><path d="M 11.578125 -42 C 14.898438 -42 17.300781 -41.085938 18.78125 -39.265625 C 20.257812 -37.453125 21 -34.941406 21 -31.734375 L 21 -26.703125 C 21 -23.335938 20.207031 -20.804688 18.625 -19.109375 C 17.050781 -17.410156 14.582031 -16.5625 11.21875 -16.5625 L 7.078125 -16.5625 L 7.078125 0 L 2.40625 0 L 2.40625 -42 Z M 11.21875 -20.765625 C 12.976562 -20.765625 14.273438 -21.191406 15.109375 -22.046875 C 15.953125 -22.910156 16.375 -24.363281 16.375 -26.40625 L 16.375 -31.984375 C 16.375 -33.898438 16.003906 -35.335938 15.265625 -36.296875 C 14.523438 -37.253906 13.296875 -37.734375 11.578125 -37.734375 L 7.078125 -37.734375 L 7.078125 -20.765625 Z M 11.21875 -20.765625 "/></g></g></g><g fill="#00ff7d" fill-opacity="1"><g transform="translate(191.290377, 202.499987)"><g><path d="M 16.734375 -22.4375 L 16.734375 -18.1875 L 7.078125 -18.1875 L 7.078125 0 L 2.40625 0 L 2.40625 -42 L 19.078125 -42 L 19.078125 -37.734375 L 7.078125 -37.734375 L 7.078125 -22.4375 Z M 16.734375 -22.4375 "/></g></g></g><g fill="#00ff7d" fill-opacity="1"><g transform="translate(211.690362, 202.499987)"><g><path d="M 2.40625 0 L 2.40625 -42 L 7.078125 -42 L 7.078125 -4.265625 L 19.078125 -4.265625 L 19.078125 0 Z M 2.40625 0 "/></g></g></g><g fill="#00ff7d" fill-opacity="1"><g transform="translate(231.910343, 202.499987)"><g><path d="M 7.078125 -42 L 7.078125 0 L 2.40625 0 L 2.40625 -42 Z M 7.078125 -42 "/></g></g></g><g fill="#00ff7d" fill-opacity="1"><g transform="translate(241.39033, 202.499987)"><g><path d="M 12.84375 -18.125 L 5.8125 0 L 1.375 0 L 9.84375 -21.65625 L 1.921875 -42 L 6.78125 -42 L 13.265625 -25.203125 L 19.796875 -42 L 24.1875 -42 L 16.3125 -21.65625 L 24.71875 0 L 19.796875 0 Z M 12.84375 -18.125 "/></g></g></g></svg>